<?xml version='1.0' encoding='UTF-8' standalone='no'?>
<svg xmlns="http://www.w3.org/2000/svg" viewBox="0 0 590.55115 826.77164" gorn="0"  height="74.409447" id="svg2" version="1.2" width="53.149605">
    <desc >
        <referenceFile >GY-521 PCB.svg</referenceFile>
    </desc>
    <metadata  id="metadata39">
        <rdf:RDF xmlns:rdf="http://www.w3.org/1999/02/22-rdf-syntax-ns#">
            <cc:Work xmlns:cc="http://creativecommons.org/ns#" xmlns:rdf="http://www.w3.org/1999/02/22-rdf-syntax-ns#" rdf:about="">
                <dc:format xmlns:dc="http://purl.org/dc/elements/1.1/">image/svg+xml</dc:format>
                <dc:type xmlns:dc="http://purl.org/dc/elements/1.1/" xmlns:rdf="http://www.w3.org/1999/02/22-rdf-syntax-ns#" rdf:resource="http://purl.org/dc/dcmitype/StillImage"/>
                <dc:title xmlns:dc="http://purl.org/dc/elements/1.1/"/>
            </cc:Work>
        </rdf:RDF>
    </metadata>
    <defs  id="defs37"/>
    <desc  id="desc4">Fritzing footprint SVG</desc>
    <g  transform="matrix(2.8334566,0,0,2.0073145,-44.739206,-28.219288)">
        <g >
            <g >
                <g >
                    <g gorn="0.4.0.0.0.0"  id="silkscreen">
                        <line gorn="0.4.0.0.0.0.0" style="stroke-miterlimit:4;stroke-dasharray:none"  id="line7" stroke-width="7.06221581" x2="18.761696" stroke="#ffffff" y2="421.7424" x1="18.761696" y1="18.253496"/>
                        <line gorn="0.4.0.0.0.0.1" style="stroke-miterlimit:4;stroke-dasharray:none"  id="line9" stroke-width="7.06221581" x2="221.2383" stroke="#ffffff" y2="421.7424" x1="18.761696" y1="421.7424"/>
                        <line gorn="0.4.0.0.0.0.2" style="stroke-miterlimit:4;stroke-dasharray:none"  id="line11" stroke-width="7.06221581" x2="221.2383" stroke="#ffffff" y2="18.253496" x1="221.2383" y1="421.7424"/>
                        <line gorn="0.4.0.0.0.0.3" style="stroke-miterlimit:4;stroke-dasharray:none"  id="line13" stroke-width="7.06221581" x2="18.761696" stroke="#ffffff" y2="18.253496" x1="221.2383" y1="18.253496"/>
                        <line gorn="0.4.0.0.0.0.4"  id="line15" stroke-width="2.0356493" x2="30.638803" stroke="#ffffff" y2="18.239037" x1="18.805645" y1="35.398411"/>
                        <!-- 120 -->
                    </g>
                </g>
            </g>
        </g>
    </g>
    <g  transform="translate(20.357815,390.50046)">
        <g >
            <g >
                <g >
                    <g gorn="0.5.0.0.0.0"  id="copper1">
                        <g gorn="0.5.0.0.0.0.0"  id="copper0">
                            <g  transform="translate(-22.222223,-399.99997)">
                                <g >
                                    <g >
                                        <g >
                                            <circle cy="70" gorn="0.5.0.0.0.0.0.0.0.0.0.0" d="M 99,70 C 99,86.016258 86.016258,99 70,99 53.983742,99 41,86.016258 41,70 41,53.983742 53.983742,41 70,41 86.016258,41 99,53.983742 99,70 z"  id="connector0pin" stroke-width="20" stroke="#ffbf00" r="29" fill="none" cx="70"/>
                                        </g>
                                    </g>
                                </g>
                            </g>
                            <g  transform="translate(-22.222223,-399.99997)">
                                <g >
                                    <g >
                                        <g >
                                            <circle cy="170" gorn="0.5.0.0.0.0.0.1.0.0.0.0" d="m 99,170 c 0,16.01626 -12.983742,29 -29,29 -16.016258,0 -29,-12.98374 -29,-29 0,-16.01626 12.983742,-29 29,-29 16.016258,0 29,12.98374 29,29 z"  id="connector1pin" stroke-width="20" stroke="#ffbf00" r="29" fill="none" cx="70"/>
                                        </g>
                                    </g>
                                </g>
                            </g>
                            <g  transform="translate(-22.222223,-399.99997)">
                                <g >
                                    <g >
                                        <g >
                                            <circle cy="270" gorn="0.5.0.0.0.0.0.2.0.0.0.0" d="m 99,270 c 0,16.01626 -12.983742,29 -29,29 -16.016258,0 -29,-12.98374 -29,-29 0,-16.01626 12.983742,-29 29,-29 16.016258,0 29,12.98374 29,29 z"  id="connector2pin" stroke-width="20" stroke="#ffbf00" r="29" fill="none" cx="70"/>
                                        </g>
                                    </g>
                                </g>
                            </g>
                            <g  transform="translate(-22.222223,-399.99997)">
                                <g >
                                    <g >
                                        <g >
                                            <circle cy="370" gorn="0.5.0.0.0.0.0.3.0.0.0.0" d="m 99,370 c 0,16.01626 -12.983742,29 -29,29 -16.016258,0 -29,-12.98374 -29,-29 0,-16.01626 12.983742,-29 29,-29 16.016258,0 29,12.98374 29,29 z"  id="connector3pin" stroke-width="20" stroke="#ffbf00" r="29" fill="none" cx="70"/>
                                        </g>
                                    </g>
                                </g>
                            </g>
                            <g  transform="translate(-22.222223,-399.99997)">
                                <g >
                                    <g >
                                        <g >
                                            <circle cy="70" gorn="0.5.0.0.0.0.0.4.0.0.0.0" d="M 99,70 C 99,86.016258 86.016258,99 70,99 53.983742,99 41,86.016258 41,70 41,53.983742 53.983742,41 70,41 86.016258,41 99,53.983742 99,70 z"  id="circle23" stroke-width="20" stroke="#ffbf00" r="29" fill="none" cx="70"/>
                                        </g>
                                    </g>
                                </g>
                            </g>
                            <g  transform="translate(-22.222223,-399.99997)">
                                <g >
                                    <g >
                                        <g >
                                            <circle cy="170" gorn="0.5.0.0.0.0.0.5.0.0.0.0" d="m 99,170 c 0,16.01626 -12.983742,29 -29,29 -16.016258,0 -29,-12.98374 -29,-29 0,-16.01626 12.983742,-29 29,-29 16.016258,0 29,12.98374 29,29 z"  id="circle25" stroke-width="20" stroke="#ffbf00" r="29" fill="none" cx="70"/>
                                        </g>
                                    </g>
                                </g>
                            </g>
                            <g  transform="translate(-22.222223,-399.99997)">
                                <g >
                                    <g >
                                        <g >
                                            <circle cy="270" gorn="0.5.0.0.0.0.0.6.0.0.0.0" d="m 99,270 c 0,16.01626 -12.983742,29 -29,29 -16.016258,0 -29,-12.98374 -29,-29 0,-16.01626 12.983742,-29 29,-29 16.016258,0 29,12.98374 29,29 z"  id="circle27" stroke-width="20" stroke="#ffbf00" r="29" fill="none" cx="70"/>
                                        </g>
                                    </g>
                                </g>
                            </g>
                            <g  transform="translate(-22.222223,-399.99997)">
                                <g >
                                    <g >
                                        <g >
                                            <circle cy="370" gorn="0.5.0.0.0.0.0.7.0.0.0.0" d="m 99,370 c 0,16.01626 -12.983742,29 -29,29 -16.016258,0 -29,-12.98374 -29,-29 0,-16.01626 12.983742,-29 29,-29 16.016258,0 29,12.98374 29,29 z"  id="circle29" stroke-width="20" stroke="#ffbf00" r="29" fill="none" cx="70"/>
                                        </g>
                                    </g>
                                </g>
                            </g>
                            <g  transform="translate(-122.29755,9.3220332)">
                                <g >
                                    <g >
                                        <g >
                                            <circle cy="370" gorn="0.5.0.0.0.0.0.8.0.0.0.0" d="m 199,370 c 0,16.01626 -12.98374,29 -29,29 -16.01626,0 -29,-12.98374 -29,-29 0,-16.01626 12.98374,-29 29,-29 16.01626,0 29,12.98374 29,29 z"  id="connector4pin" stroke-width="20" stroke="#ffbf00" r="29" fill="none" cx="170"/>
                                        </g>
                                    </g>
                                </g>
                            </g>
                            <g  transform="translate(-122.29755,9.3220332)">
                                <g >
                                    <g >
                                        <g >
                                            <circle cy="270" gorn="0.5.0.0.0.0.0.9.0.0.0.0" d="m 199,270 c 0,16.01626 -12.98374,29 -29,29 -16.01626,0 -29,-12.98374 -29,-29 0,-16.01626 12.98374,-29 29,-29 16.01626,0 29,12.98374 29,29 z"  id="connector5pin" stroke-width="20" stroke="#ffbf00" r="29" fill="none" cx="170"/>
                                        </g>
                                    </g>
                                </g>
                            </g>
                            <g  transform="translate(-122.29755,9.3220332)">
                                <g >
                                    <g >
                                        <g >
                                            <circle cy="170" gorn="0.5.0.0.0.0.0.10.0.0.0.0" d="m 199,170 c 0,16.01626 -12.98374,29 -29,29 -16.01626,0 -29,-12.98374 -29,-29 0,-16.01626 12.98374,-29 29,-29 16.01626,0 29,12.98374 29,29 z"  id="connector6pin" stroke-width="20" stroke="#ffbf00" r="29" fill="none" cx="170"/>
                                        </g>
                                    </g>
                                </g>
                            </g>
                            <g  transform="translate(-122.29755,9.3220332)">
                                <g >
                                    <g >
                                        <g >
                                            <circle cy="70" gorn="0.5.0.0.0.0.0.11.0.0.0.0" d="m 199,70 c 0,16.016258 -12.98374,29 -29,29 -16.01626,0 -29,-12.983742 -29,-29 0,-16.016258 12.98374,-29 29,-29 16.01626,0 29,12.983742 29,29 z"  id="connector7pin" stroke-width="20" stroke="#ffbf00" r="29" fill="none" cx="170"/>
                                        </g>
                                    </g>
                                </g>
                            </g>
                        </g>
                    </g>
                </g>
            </g>
        </g>
    </g>
</svg>
