<?xml version="1.0" encoding="UTF-8"?>
<!DOCTYPE svg PUBLIC "-//W3C//DTD SVG 1.1//EN" "http://www.w3.org/Graphics/SVG/1.1/DTD/svg11.dtd">
<!-- Creator: CorelDRAW X6 -->
<svg xmlns="http://www.w3.org/2000/svg" xml:space="preserve" width="3.25961in" height="1.41732in" version="1.1" shape-rendering="geometricPrecision" text-rendering="geometricPrecision" image-rendering="optimizeQuality" fill-rule="evenodd" clip-rule="evenodd"
viewBox="0 0 329931 143459"
 xmlns:xlink="http://www.w3.org/1999/xlink">
 <g id="breadboard">
  <metadata id="CorelCorpID_0Corel-Layer"/>
  <g id="pins">
   <line id="connector0pin" fill="none" stroke="#4B4B4D" stroke-width="2024.36" stroke-linecap="round" x1="11134" y1="20244" x2="1012" y2= "20244"  gorn="0.0.7"/>
   <rect id="connector0terminal" fill="none" transform="matrix(2.64845E-014 1 -1 2.64845E-014 1011.78 19751.9)" width="984" height="984" text-anchor="start" gorn="0.0.9"/>
   <line id="connector1pin" fill="none" stroke="#4B4B4D" stroke-width="2024.36" stroke-linecap="round" x1="1012" y1="30365" x2="11134" y2= "30365"  gorn="0.0.10"/>
   <rect id="connector1terminal" fill="none" transform="matrix(-2.64845E-014 1 1 2.64845E-014 28.2933 29873.7)" width="984" height="984" text-anchor="end" gorn="0.0.12"/>
   <line id="connector2pin" fill="none" stroke="#4B4B4D" stroke-width="2024.36" stroke-linecap="round" x1="11134" y1="40487" x2="1012" y2= "40487"  gorn="0.0.1"/>
   <rect id="connector2terminal" fill="none" x="28" y="39996" width="984" height="984" text-anchor="end" gorn="0.0.3"/>
   <line id="connector3pin" fill="none" stroke="#4B4B4D" stroke-width="2024.36" stroke-linecap="round" x1="11134" y1="50609" x2="1012" y2= "50609"  gorn="0.0.4"/>
   <rect id="connector3terminal" fill="none" x="28" y="50117" width="984" height="984" text-anchor="end" gorn="0.0.6"/>
  </g>
  <g id="icon">
   <path fill="#1F7A34" d="M11134 0l0 143458 318797 0 0 -143459 -318797 0zm158897 2926c1077,0 1950,873 1950,1950 0,1077 -873,1950 -1950,1950 -1077,0 -1950,-873 -1950,-1950 0,-1077 874,-1950 1950,-1950zm-101217 0c1077,0 1950,873 1950,1950 0,1077 -873,1950 -1950,1950 -1077,0 -1950,-873 -1950,-1950 0,-1077 874,-1950 1950,-1950zm-10122 0c1077,0 1950,873 1950,1950 0,1077 -873,1950 -1950,1950 -1077,0 -1950,-873 -1950,-1950 0,-1077 873,-1950 1950,-1950zm-38362 2326c2216,0 4012,1795 4012,4012 0,2217 -1796,4011 -4012,4011 -2216,0 -4012,-1795 -4012,-4010 0,-2215 1796,-4012 4012,-4012zm4 132994c-2216,0 -4012,-1796 -4012,-4012 0,-2216 1796,-4012 4012,-4012 2216,0 4012,1795 4012,4012 -1,2215 -1796,4012 -4012,4012zm18114 -131422c-1077,0 -1950,-873 -1950,-1950 0,-1077 873,-1950 1950,-1950 1077,0 1950,873 1950,1950 0,1077 -874,1950 -1950,1950zm8172 -1948c0,-1077 873,-1950 1950,-1950 1077,0 1950,873 1950,1950 0,1077 -873,1950 -1950,1950 -1077,0 -1950,-874 -1950,-1950zm25271 121422l-22961 0 0 -6770 22961 0 0 6770zm0 -102367l-22961 0 0 -6770 22961 0 0 6770zm7043 -17107c-1077,0 -1950,-873 -1950,-1950 0,-1077 873,-1950 1950,-1950 1077,0 1950,873 1950,1950 0,1077 -873,1950 -1950,1950zm10123 0c-1077,0 -1950,-873 -1950,-1950 0,-1077 873,-1950 1950,-1950 1077,0 1950,873 1950,1950 0,1077 -874,1950 -1950,1950zm10122 0c-1077,0 -1950,-873 -1950,-1950 0,-1077 873,-1950 1950,-1950 1077,0 1950,873 1950,1950 0,1077 -873,1950 -1950,1950zm10122 0c-1077,0 -1950,-873 -1950,-1950 0,-1077 873,-1950 1950,-1950 1077,0 1950,873 1950,1950 0,1077 -873,1950 -1950,1950zm10121 0c-1077,0 -1950,-873 -1950,-1950 0,-1077 873,-1950 1950,-1950 1077,0 1950,873 1950,1950 0,1077 -873,1950 -1950,1950zm10122 0c-1077,0 -1950,-873 -1950,-1950 0,-1077 873,-1950 1950,-1950 1077,0 1950,873 1950,1950 0,1077 -873,1950 -1950,1950zm10123 0c-1077,0 -1950,-873 -1950,-1950 0,-1077 873,-1950 1950,-1950 1077,0 1950,873 1950,1950 0,1077 -874,1950 -1950,1950zm10122 0c-1077,0 -1950,-873 -1950,-1950 0,-1077 873,-1950 1950,-1950 1077,0 1950,873 1950,1950 0,1077 -873,1950 -1950,1950zm8171 -1948c0,-1077 873,-1950 1950,-1950 1077,0 1950,873 1950,1950 0,1077 -873,1950 -1950,1950 -1077,0 -1950,-874 -1950,-1950zm24054 121422l-22962 0 0 -6770 22962 0 0 6770zm0 -102367l-22962 0 0 -6770 22962 0 0 6770zm-1861 -17107c-1077,0 -1950,-873 -1950,-1950 0,-1077 873,-1950 1950,-1950 1077,0 1950,873 1950,1950 0,1077 -873,1950 -1950,1950zm10123 0c-1077,0 -1950,-873 -1950,-1950 0,-1077 873,-1950 1950,-1950 1077,0 1950,873 1950,1950 0,1077 -873,1950 -1950,1950zm101858 119474l-22960 0 0 -6770 22960 0 0 6770zm0 -102367l-22960 0 0 -6770 22960 0 0 6770zm28570 -18686c2216,0 4012,1795 4012,4012 0,2217 -1795,4012 -4012,4012 -2217,0 -4014,-1795 -4014,-4012 0,-2217 1797,-4012 4014,-4012zm0 133002c-2216,0 -4012,-1795 -4012,-4012 0,-2214 1795,-4012 4012,-4012 2217,0 4014,1796 4014,4012 0,2216 -1798,4012 -4014,4012z"/>
   <g>
    <path fill="#9A916C" d="M13356 9265c0,3848 3125,6974 6973,6974 3855,0 6974,-3127 6974,-6974 0,-3853 -3119,-6973 -6974,-6973 -3848,0 -6973,3119 -6973,6973zm2962 0c0,-2216 1796,-4012 4012,-4012 2216,0 4012,1795 4012,4012 0,2217 -1798,4010 -4013,4010 -2214,0 -4011,-1795 -4011,-4010z"/>
   </g>
   <g>
    <g>
     <path fill="#9A916C" d="M327677 134235c0,-3848 -3125,-6974 -6974,-6974 -3855,0 -6974,3127 -6974,6974 0,3853 3119,6973 6974,6973 3850,0 6974,-3118 6974,-6973zm-2959 0c0,2216 -1798,4012 -4014,4012 -2216,0 -4012,-1795 -4012,-4012 0,-2214 1795,-4012 4012,-4012 2217,0 4014,1798 4014,4012z"/>
    </g>
   </g>
   <g>
    <g>
     <path fill="#9A916C" d="M13361 134234c0,3848 3125,6974 6973,6974 3855,0 6974,-3127 6974,-6974 0,-3853 -3119,-6973 -6974,-6973 -3848,0 -6973,3120 -6973,6973zm2960 0c0,-2216 1796,-4012 4012,-4012 2216,0 4012,1795 4012,4012 0,2214 -1796,4012 -4012,4012 -2214,0 -4012,-1796 -4012,-4012z"/>
    </g>
   </g>
   <path fill="#303030" d="M316985 91760c-1032,0 -1878,-846 -1878,-1880l0 -36301c0,-1033 846,-1880 1878,-1880l80 0 0 -28186 0 -981 -983 0 -2880 -2880 0 -1002 -1002 0 -283338 0 -1002 0 0 1002 -2879 2879 -983 0 0 981 0 28188 80 0c1033,0 1880,846 1880,1880l0 36301c0,1033 -846,1880 -1880,1880l-80 0 0 28185 0 981 983 0 2880 2880 0 1002 1003 0 283336 0 1002 0 0 -1002 2880 -2880 983 0 0 -981 0 -28185 -80 0z"/>
   <g>
    <path fill="#87AD34" d="M304474 100349c0,3101 -2538,5639 -5640,5639l-256603 0c-3101,0 -5639,-2538 -5639,-5639l0 -57240c0,-3101 2538,-5639 5639,-5639l256603 0c3103,0 5640,2538 5640,5639l0 57240z"/>
    <g>
     <path fill="#22420D" fill-opacity="0.200000" d="M304463 43083l0 57294c0,-8 3,-17 3,-27l0 -57240c0,-10 -3,-18 -3,-27zm-262232 -5612c-3100,0 -5639,2539 -5639,5639l0 57240c0,3100 2539,5639 5639,5639l3270 0c-3101,0 -5639,-2539 -5639,-5639l0 -55359c0,-3101 2538,-5639 5639,-5639l257495 0c-1033,-1144 -2512,-1881 -4167,-1881l-256598 0z"/>
    </g>
   </g>
   <g>
    <path fill="#1A1A1A" d="M306857 26174c0,-1033 -846,-1878 -1878,-1878l-268892 0c-1033,0 -1878,846 -1878,1878l0 1036c0,1033 846,1878 1878,1878l268890 0c1032,0 1878,-846 1878,-1878l0 -1036 2 0z"/>
    <path fill="#424242" d="M305917 27852c0,-680 -607,-1237 -1345,-1237l-267969 0c-740,0 -1345,557 -1345,1237 0,680 606,1237 1345,1237l267969 0c738,-1 1345,-558 1345,-1237z"/>
   </g>
   <g>
    <path fill="#1A1A1A" d="M306857 115355c0,-1032 -846,-1878 -1878,-1878l-268892 0c-1033,0 -1878,846 -1878,1878l0 1037c0,1032 846,1878 1878,1878l268890 0c1032,0 1878,-846 1878,-1878l0 -1037 2 0z"/>
    <path fill="#424242" d="M305917 117035c0,-680 -607,-1237 -1345,-1237l-267969 0c-740,0 -1345,557 -1345,1237 0,679 606,1236 1345,1236l267969 0c738,0 1345,-557 1345,-1236z"/>
   </g>
   <g>
    <line fill="none" fill-opacity="0.200000" stroke="#F2F2F2" stroke-width="331.549" stroke-linecap="round" stroke-opacity="0.200000" x1="25103" y1="22736" x2="28074" y2= "19766" />
    <line fill="none" fill-opacity="0.200000" stroke="#F2F2F2" stroke-width="331.549" stroke-linecap="round" stroke-opacity="0.200000" x1="28105" y1="123679" x2="25134" y2= "120707" />
   </g>
   <g>
    <line fill="none" fill-opacity="0.200000" stroke="#F2F2F2" stroke-width="331.549" stroke-linecap="round" stroke-opacity="0.200000" x1="315945" y1="22736" x2="312973" y2= "19766" />
    <line fill="none" fill-opacity="0.200000" stroke="#F2F2F2" stroke-width="331.549" stroke-linecap="round" stroke-opacity="0.200000" x1="312944" y1="123679" x2="315914" y2= "120707" />
   </g>
   <path fill="none" fill-opacity="0.400000" stroke="#1A1A1A" stroke-width="1989.29" stroke-opacity="0.400000" d="M304465 100349c0,3100 -2538,5639 -5637,5639l-256598 0c-3100,0 -5639,-2539 -5639,-5639l0 -57240c0,-3100 2539,-5639 5639,-5639l256598 0c3100,0 5637,2539 5637,5639l0 57240z"/>
   <g>
    <path fill="#9A916C" d="M313730 9257c0,3848 3125,6974 6974,6974 3855,0 6974,-3127 6974,-6974 0,-3853 -3119,-6973 -6974,-6973 -3850,0 -6974,3119 -6974,6973zm2959 0c0,-2216 1798,-4012 4014,-4012 2216,0 4012,1795 4012,4012 0,2217 -1795,4012 -4012,4012 -2217,0 -4014,-1796 -4014,-4012z"/>
   </g>
   <g>
    <path fill="#9A916C" d="M35061 0l0 6678c0,1870 1515,3388 3388,3388 1870,0 3388,-1518 3388,-3388l0 -6678 -6776 0zm3388 6824c-1077,0 -1950,-873 -1950,-1950 0,-1077 873,-1950 1950,-1950 1077,0 1950,873 1950,1950 0,1077 -874,1950 -1950,1950z"/>
   </g>
   <g>
    <path fill="#9A916C" d="M45182 0l0 6678c0,1870 1515,3388 3388,3388 1870,0 3388,-1518 3388,-3388l0 -6678 -6776 0zm3388 6824c-1077,0 -1950,-873 -1950,-1950 0,-1077 873,-1950 1950,-1950 1077,0 1950,873 1950,1950 0,1077 -873,1950 -1950,1950z"/>
   </g>
   <g>
    <path fill="#9A916C" d="M55304 0l0 6678c0,1870 1515,3388 3388,3388 1870,0 3388,-1518 3388,-3388l0 -6678 -6776 0zm3388 6824c-1077,0 -1950,-873 -1950,-1950 0,-1077 873,-1950 1950,-1950 1077,0 1950,873 1950,1950 0,1077 -873,1950 -1950,1950z"/>
   </g>
   <g>
    <path fill="#9A916C" d="M65426 0l0 6678c0,1870 1515,3388 3388,3388 1870,0 3388,-1518 3388,-3388l0 -6678 -6776 0zm3388 6824c-1077,0 -1950,-873 -1950,-1950 0,-1077 873,-1950 1950,-1950 1077,0 1950,873 1950,1950 0,1077 -873,1950 -1950,1950z"/>
   </g>
   <g>
    <path fill="#9A916C" d="M75547 0l0 6678c0,1870 1515,3388 3388,3388 1870,0 3388,-1518 3388,-3388l0 -6678 -6776 0zm3388 6824c-1077,0 -1950,-873 -1950,-1950 0,-1077 873,-1950 1950,-1950 1077,0 1950,873 1950,1950 0,1077 -873,1950 -1950,1950z"/>
   </g>
   <g>
    <path fill="#9A916C" d="M85670 0l0 6678c0,1870 1515,3388 3388,3388 1870,0 3388,-1518 3388,-3388l0 -6678 -6776 0zm3388 6824c-1077,0 -1950,-873 -1950,-1950 0,-1077 873,-1950 1950,-1950 1077,0 1950,873 1950,1950 0,1077 -874,1950 -1950,1950z"/>
   </g>
   <g>
    <path fill="#9A916C" d="M95791 0l0 6678c0,1870 1515,3388 3388,3388 1870,0 3388,-1518 3388,-3388l0 -6678 -6776 0zm3388 6824c-1077,0 -1950,-873 -1950,-1950 0,-1077 873,-1950 1950,-1950 1077,0 1950,873 1950,1950 0,1077 -873,1950 -1950,1950z"/>
   </g>
   <g>
    <path fill="#9A916C" d="M105913 0l0 6678c0,1870 1515,3388 3388,3388 1870,0 3388,-1518 3388,-3388l0 -6678 -6776 0zm3388 6824c-1077,0 -1950,-873 -1950,-1950 0,-1077 873,-1950 1950,-1950 1077,0 1950,873 1950,1950 0,1077 -873,1950 -1950,1950z"/>
   </g>
   <g>
    <path fill="#9A916C" d="M116034 0l0 6678c0,1870 1515,3388 3388,3388 1870,0 3388,-1518 3388,-3388l0 -6678 -6776 0zm3388 6824c-1077,0 -1950,-873 -1950,-1950 0,-1077 873,-1950 1950,-1950 1077,0 1950,873 1950,1950 0,1077 -873,1950 -1950,1950z"/>
   </g>
   <g>
    <path fill="#9A916C" d="M126156 0l0 6678c0,1870 1515,3388 3388,3388 1870,0 3388,-1518 3388,-3388l0 -6678 -6776 0zm3388 6824c-1077,0 -1950,-873 -1950,-1950 0,-1077 873,-1950 1950,-1950 1077,0 1950,873 1950,1950 0,1077 -873,1950 -1950,1950z"/>
   </g>
   <g>
    <path fill="#9A916C" d="M136279 0l0 6678c0,1870 1515,3388 3388,3388 1870,0 3388,-1518 3388,-3388l0 -6678 -6776 0zm3388 6824c-1077,0 -1950,-873 -1950,-1950 0,-1077 873,-1950 1950,-1950 1077,0 1950,873 1950,1950 0,1077 -874,1950 -1950,1950z"/>
   </g>
   <g>
    <path fill="#9A916C" d="M146400 0l0 6678c0,1870 1515,3388 3388,3388 1870,0 3388,-1518 3388,-3388l0 -6678 -6776 0zm3388 6824c-1077,0 -1950,-873 -1950,-1950 0,-1077 873,-1950 1950,-1950 1077,0 1950,873 1950,1950 0,1077 -873,1950 -1950,1950z"/>
   </g>
   <g>
    <path fill="#9A916C" d="M156521 0l0 6678c0,1870 1515,3388 3388,3388 1870,0 3388,-1518 3388,-3388l0 -6678 -6776 0zm3388 6824c-1077,0 -1950,-873 -1950,-1950 0,-1077 873,-1950 1950,-1950 1077,0 1950,873 1950,1950 0,1077 -873,1950 -1950,1950z"/>
   </g>
   <g>
    <path fill="#9A916C" d="M166643 0l0 6678c0,1870 1515,3388 3388,3388 1870,0 3389,-1518 3389,-3388l0 -6678 -6777 0zm3388 6824c-1077,0 -1950,-873 -1950,-1950 0,-1077 873,-1950 1950,-1950 1077,0 1950,873 1950,1950 0,1077 -873,1950 -1950,1950z"/>
   </g>
   <g>
    <path fill="#9A916C" d="M176765 0l0 6678c0,1870 1515,3388 3388,3388 1870,0 3388,-1518 3388,-3388l0 -6678 -6776 0zm3388 6824c-1077,0 -1950,-873 -1950,-1950 0,-1077 873,-1950 1950,-1950 1077,0 1950,873 1950,1950 0,1077 -873,1950 -1950,1950z"/>
   </g>
   <g>
    <path fill="#9A916C" d="M186888 0l0 6678c0,1870 1515,3388 3388,3388 1870,0 3388,-1518 3388,-3388l0 -6678 -6776 0zm3388 6824c-1077,0 -1950,-873 -1950,-1950 0,-1077 873,-1950 1950,-1950 1077,0 1950,873 1950,1950 0,1077 -873,1950 -1950,1950z"/>
   </g>
   <g>
    <polygon fill="#1A1A1A" fill-opacity="0.101961" points="50201,95443 64297,95443 64297,72216 50201,72216 "/>
    <polygon fill="#1A1A1A" fill-opacity="0.101961" points="65305,95443 79401,95443 79401,72216 65305,72216 "/>
    <polygon fill="#1A1A1A" fill-opacity="0.101961" points="80409,95443 94505,95443 94505,72216 80409,72216 "/>
    <polygon fill="#1A1A1A" fill-opacity="0.101961" points="95513,95443 109611,95443 109611,72216 95513,72216 "/>
    <polygon fill="#1A1A1A" fill-opacity="0.101961" points="110620,95443 124716,95443 124716,72216 110620,72216 "/>
    <polygon fill="#1A1A1A" fill-opacity="0.101961" points="125724,95443 139820,95443 139820,72216 125724,72216 "/>
    <polygon fill="#1A1A1A" fill-opacity="0.101961" points="140828,95443 154924,95443 154924,72216 140828,72216 "/>
    <polygon fill="#1A1A1A" fill-opacity="0.101961" points="155932,95443 170028,95443 170028,72216 155932,72216 "/>
    <polygon fill="#1A1A1A" fill-opacity="0.101961" points="171036,95443 185134,95443 185134,72216 171036,72216 "/>
    <polygon fill="#1A1A1A" fill-opacity="0.101961" points="186141,95443 200237,95443 200237,72216 186141,72216 "/>
    <polygon fill="#1A1A1A" fill-opacity="0.101961" points="201246,95443 215342,95443 215342,72216 201246,72216 "/>
    <polygon fill="#1A1A1A" fill-opacity="0.101961" points="216349,95443 230445,95443 230445,72216 216349,72216 "/>
    <polygon fill="#1A1A1A" fill-opacity="0.101961" points="231454,95443 245550,95443 245550,72216 231454,72216 "/>
    <polygon fill="#1A1A1A" fill-opacity="0.101961" points="246557,95443 260653,95443 260653,72216 246557,72216 "/>
    <polygon fill="#1A1A1A" fill-opacity="0.101961" points="261662,95443 275758,95443 275758,72216 261662,72216 "/>
    <polygon fill="#1A1A1A" fill-opacity="0.101961" points="276767,95443 290863,95443 290863,72216 276767,72216 "/>
    <polygon fill="#1A1A1A" fill-opacity="0.101961" points="50201,71241 64297,71241 64297,48014 50201,48014 "/>
    <polygon fill="#1A1A1A" fill-opacity="0.101961" points="65305,71241 79401,71241 79401,48014 65305,48014 "/>
    <polygon fill="#1A1A1A" fill-opacity="0.101961" points="80409,71241 94505,71241 94505,48014 80409,48014 "/>
    <polygon fill="#1A1A1A" fill-opacity="0.101961" points="95513,71241 109611,71241 109611,48014 95513,48014 "/>
    <polygon fill="#1A1A1A" fill-opacity="0.101961" points="110620,71241 124716,71241 124716,48014 110620,48014 "/>
    <polygon fill="#1A1A1A" fill-opacity="0.101961" points="125724,71241 139820,71241 139820,48014 125724,48014 "/>
    <polygon fill="#1A1A1A" fill-opacity="0.101961" points="140828,71241 154924,71241 154924,48014 140828,48014 "/>
    <polygon fill="#1A1A1A" fill-opacity="0.101961" points="155932,71241 170028,71241 170028,48014 155932,48014 "/>
    <polygon fill="#1A1A1A" fill-opacity="0.101961" points="171036,71241 185134,71241 185134,48014 171036,48014 "/>
    <polygon fill="#1A1A1A" fill-opacity="0.101961" points="186141,71241 200237,71241 200237,48014 186141,48014 "/>
    <polygon fill="#1A1A1A" fill-opacity="0.101961" points="201246,71241 215342,71241 215342,48014 201246,48014 "/>
    <polygon fill="#1A1A1A" fill-opacity="0.101961" points="216349,71241 230445,71241 230445,48014 216349,48014 "/>
    <polygon fill="#1A1A1A" fill-opacity="0.101961" points="231454,71241 245550,71241 245550,48014 231454,48014 "/>
    <polygon fill="#1A1A1A" fill-opacity="0.101961" points="246557,71241 260653,71241 260653,48014 246557,48014 "/>
    <polygon fill="#1A1A1A" fill-opacity="0.101961" points="261662,71241 275758,71241 275758,48014 261662,48014 "/>
    <polygon fill="#1A1A1A" fill-opacity="0.101961" points="276767,71241 290863,71241 290863,48014 276767,48014 "/>
   </g>
   <g>
    <path fill="#606060" d="M24424 91691l0 29236 377 0 0 -29314c-117,49 -250,52 -377,77z"/>
    <path fill="#606060" d="M24801 51848l0 -29318 -377 0 0 29241c127,25 260,28 377,77z"/>
   </g>
   <rect fill="#606060" x="27863" y="19080" width="285335" height="375"/>
   <rect fill="#212121" x="27863" y="18655" width="285335" height="427"/>
   <g>
    <path fill="#212121" d="M24078 51700c122,0 231,48 347,70l0 -29241 -426 0 0 29170 79 0z"/>
    <path fill="#212121" d="M24078 91760l-79 0 0 29168 426 0 0 -29238c-117,23 -225,71 -347,71z"/>
   </g>
   <rect fill="#212121" x="27863" y="124386" width="285335" height="426"/>
   <rect fill="#606060" x="27863" y="124013" width="285335" height="375"/>
   <g>
    <path fill="#212121" d="M316985 91760c-125,0 -234,-48 -351,-72l0 29239 429 0 0 -29168 -77 0z"/>
    <path fill="#212121" d="M316985 51700l77 0 0 -29170 -429 0 0 29242c118,-23 226,-72 351,-72z"/>
   </g>
   <g>
    <path fill="#606060" d="M316263 91614l0 29314 374 0 0 -29238c-125,-24 -259,-27 -374,-76z"/>
    <path fill="#606060" d="M316637 51772l0 -29241 -374 0 0 29317c115,-49 249,-52 374,-76z"/>
   </g>
   <g>
    <circle fill="#606062" cx="38449" cy="5033" r="1974"/>
    <circle fill="#606062" cx="48570" cy="5033" r="1974"/>
    <circle fill="#606062" cx="58692" cy="5033" r="1974"/>
    <circle fill="#606062" cx="68814" cy="5033" r="1974"/>
    <circle fill="#606062" cx="78936" cy="5033" r="1974"/>
    <circle fill="#606062" cx="89058" cy="5033" r="1974"/>
    <circle fill="#606062" cx="99179" cy="5033" r="1974"/>
    <circle fill="#606062" cx="109301" cy="5033" r="1974"/>
    <circle fill="#606062" cx="119423" cy="5033" r="1974"/>
    <circle fill="#606062" cx="129545" cy="5033" r="1974"/>
    <circle fill="#606062" cx="139667" cy="5033" r="1974"/>
    <circle fill="#606062" cx="149788" cy="5033" r="1974"/>
    <circle fill="#606062" cx="159910" cy="5033" r="1974"/>
    <circle fill="#606062" cx="170032" cy="5033" r="1974"/>
    <circle fill="#606062" cx="180154" cy="5033" r="1974"/>
    <circle fill="#606062" cx="190276" cy="5033" r="1974"/>
   </g>
  </g>
  <g id="labels">
   <text x="12591" y="21934"  fill="#FEFEFE" font-weight="normal" font-size="4920.24" font-family="Droid Sans">GND</text>
   <text x="12893" y="32126"  fill="#FEFEFE" font-weight="normal" font-size="4920.24" font-family="Droid Sans">VCC</text>
   <g transform="matrix(1 0 0 1 -141477 -29898.4)">
    <text x="154118" y="72216"  fill="#FEFEFE" font-weight="normal" font-size="4920.24" font-family="Droid Sans">SDA</text>
   </g>
   <g transform="matrix(1 0 0 1 -142146 -19850.7)">
    <text x="155043" y="72216"  fill="#FEFEFE" font-weight="normal" font-size="4920.24" font-family="Droid Sans">SCL</text>
   </g>
  </g>
 </g>
</svg>
